<?xml version="1.0" encoding="UTF-8"?>
<svg width="120" height="160" viewBox="0 0 120 160" fill="none" xmlns="http://www.w3.org/2000/svg">
  <!-- Document shape -->
  <path d="M10 0H85L120 35V150C120 155.523 115.523 160 110 160H10C4.477 160 0 155.523 0 150V10C0 4.477 4.477 0 10 0Z" fill="#f8f9fa"/>
  <path d="M85 0L120 35H95C89.477 35 85 30.523 85 25V0Z" fill="#e9ecef"/>
  
  <!-- PDF Text -->
  <path d="M32 60H88C90.209 60 92 61.791 92 64V96C92 98.209 90.209 100 88 100H32C29.791 100 28 98.209 28 96V64C28 61.791 29.791 60 32 60Z" fill="#f24b7c"/>
  <text x="60" y="85" font-family="Arial, sans-serif" font-size="24" font-weight="bold" fill="white" text-anchor="middle">PDF</text>
  
  <!-- Relationship Text -->
  <text x="60" y="125" font-family="Arial, sans-serif" font-size="14" font-weight="bold" fill="#444" text-anchor="middle">Relationship</text>
  <text x="60" y="145" font-family="Arial, sans-serif" font-size="14" font-weight="bold" fill="#444" text-anchor="middle">Guide</text>
</svg>