<?xml version="1.0" encoding="UTF-8"?>
<svg width="200" height="200" viewBox="0 0 200 200" xmlns="http://www.w3.org/2000/svg">
  <!-- Background Circle -->
  <circle cx="100" cy="100" r="85" fill="#fff" stroke="#f24b7c" stroke-width="6"/>
  
  <!-- Heart Icon -->
  <path d="M100 135.5c-1.5 0-3-.5-4-1.5l-40-35c-5-4.5-8-11-8-18 0-13.5 11-24.5 24.5-24.5 7 0 13.5 3 18 8l9.5 10 9.5-10c4.5-5 11-8 18-8 13.5 0 24.5 11 24.5 24.5 0 7-3 13.5-8 18l-40 35c-1 1-2.5 1.5-4 1.5z" fill="#f24b7c"/>
  
  <!-- Text: Obsession -->
  <path d="M50 165c0-3.3 1.2-6.2 3.5-8.5 2.3-2.3 5.2-3.5 8.5-3.5 3.3 0 6.2 1.2 8.5 3.5 2.3 2.3 3.5 5.2 3.5 8.5 0 3.3-1.2 6.2-3.5 8.5-2.3 2.3-5.2 3.5-8.5 3.5-3.3 0-6.2-1.2-8.5-3.5-2.3-2.3-3.5-5.2-3.5-8.5zm4 0c0 2.2 0.8 4.2 2.3 5.7 1.5 1.5 3.5 2.3 5.7 2.3 2.2 0 4.2-0.8 5.7-2.3 1.5-1.5 2.3-3.5 2.3-5.7 0-2.2-0.8-4.2-2.3-5.7-1.5-1.5-3.5-2.3-5.7-2.3-2.2 0-4.2 0.8-5.7 2.3-1.5 1.5-2.3 3.5-2.3 5.7z" fill="#f24b7c"/>
  
  <!-- Text: Trigger -->
  <path d="M126 165c0-3.3 1.2-6.2 3.5-8.5 2.3-2.3 5.2-3.5 8.5-3.5 3.3 0 6.2 1.2 8.5 3.5 2.3 2.3 3.5 5.2 3.5 8.5 0 3.3-1.2 6.2-3.5 8.5-2.3 2.3-5.2 3.5-8.5 3.5-3.3 0-6.2-1.2-8.5-3.5-2.3-2.3-3.5-5.2-3.5-8.5zm4 0c0 2.2 0.8 4.2 2.3 5.7 1.5 1.5 3.5 2.3 5.7 2.3 2.2 0 4.2-0.8 5.7-2.3 1.5-1.5 2.3-3.5 2.3-5.7 0-2.2-0.8-4.2-2.3-5.7-1.5-1.5-3.5-2.3-5.7-2.3-2.2 0-4.2 0.8-5.7 2.3-1.5 1.5-2.3 3.5-2.3 5.7z" fill="#f24b7c"/>
</svg>